G04 #@! TF.GenerationSoftware,KiCad,Pcbnew,5.1.6*
G04 #@! TF.CreationDate,2020-07-16T15:28:18+01:00*
G04 #@! TF.ProjectId,EZ-DF0,455a2d44-4630-42e6-9b69-6361645f7063,rev?*
G04 #@! TF.SameCoordinates,Original*
G04 #@! TF.FileFunction,Soldermask,Top*
G04 #@! TF.FilePolarity,Negative*
%FSLAX46Y46*%
G04 Gerber Fmt 4.6, Leading zero omitted, Abs format (unit mm)*
G04 Created by KiCad (PCBNEW 5.1.6) date 2020-07-16 15:28:18*
%MOMM*%
%LPD*%
G01*
G04 APERTURE LIST*
%ADD10C,0.100000*%
G04 APERTURE END LIST*
D10*
G36*
X128753575Y-104759376D02*
G01*
X128793463Y-104771475D01*
X128830221Y-104791123D01*
X128862438Y-104817562D01*
X128888877Y-104849779D01*
X128908525Y-104886537D01*
X128920624Y-104926425D01*
X128925000Y-104970848D01*
X128925000Y-105849152D01*
X128920624Y-105893575D01*
X128908525Y-105933463D01*
X128888877Y-105970221D01*
X128862438Y-106002438D01*
X128830221Y-106028877D01*
X128793463Y-106048525D01*
X128753575Y-106060624D01*
X128709152Y-106065000D01*
X127830848Y-106065000D01*
X127786425Y-106060624D01*
X127746537Y-106048525D01*
X127709779Y-106028877D01*
X127677562Y-106002438D01*
X127651123Y-105970221D01*
X127631475Y-105933463D01*
X127619376Y-105893575D01*
X127615000Y-105849152D01*
X127615000Y-104970848D01*
X127619376Y-104926425D01*
X127631475Y-104886537D01*
X127651123Y-104849779D01*
X127677562Y-104817562D01*
X127709779Y-104791123D01*
X127746537Y-104771475D01*
X127786425Y-104759376D01*
X127830848Y-104755000D01*
X128709152Y-104755000D01*
X128753575Y-104759376D01*
G37*
G36*
X141161055Y-104780171D02*
G01*
X141280261Y-104829547D01*
X141387537Y-104901227D01*
X141478773Y-104992463D01*
X141550453Y-105099739D01*
X141599829Y-105218945D01*
X141625000Y-105345487D01*
X141625000Y-105474513D01*
X141599829Y-105601055D01*
X141550453Y-105720261D01*
X141478773Y-105827537D01*
X141387537Y-105918773D01*
X141280261Y-105990453D01*
X141161055Y-106039829D01*
X141034513Y-106065000D01*
X140905487Y-106065000D01*
X140778945Y-106039829D01*
X140659739Y-105990453D01*
X140552463Y-105918773D01*
X140461227Y-105827537D01*
X140389547Y-105720261D01*
X140340171Y-105601055D01*
X140315000Y-105474513D01*
X140315000Y-105345487D01*
X140340171Y-105218945D01*
X140389547Y-105099739D01*
X140461227Y-104992463D01*
X140552463Y-104901227D01*
X140659739Y-104829547D01*
X140778945Y-104780171D01*
X140905487Y-104755000D01*
X141034513Y-104755000D01*
X141161055Y-104780171D01*
G37*
G36*
X143993575Y-104759376D02*
G01*
X144033463Y-104771475D01*
X144070221Y-104791123D01*
X144102438Y-104817562D01*
X144128877Y-104849779D01*
X144148525Y-104886537D01*
X144160624Y-104926425D01*
X144165000Y-104970848D01*
X144165000Y-105849152D01*
X144160624Y-105893575D01*
X144148525Y-105933463D01*
X144128877Y-105970221D01*
X144102438Y-106002438D01*
X144070221Y-106028877D01*
X144033463Y-106048525D01*
X143993575Y-106060624D01*
X143949152Y-106065000D01*
X143070848Y-106065000D01*
X143026425Y-106060624D01*
X142986537Y-106048525D01*
X142949779Y-106028877D01*
X142917562Y-106002438D01*
X142891123Y-105970221D01*
X142871475Y-105933463D01*
X142859376Y-105893575D01*
X142855000Y-105849152D01*
X142855000Y-104970848D01*
X142859376Y-104926425D01*
X142871475Y-104886537D01*
X142891123Y-104849779D01*
X142917562Y-104817562D01*
X142949779Y-104791123D01*
X142986537Y-104771475D01*
X143026425Y-104759376D01*
X143070848Y-104755000D01*
X143949152Y-104755000D01*
X143993575Y-104759376D01*
G37*
G36*
X131001055Y-104780171D02*
G01*
X131120261Y-104829547D01*
X131227537Y-104901227D01*
X131318773Y-104992463D01*
X131390453Y-105099739D01*
X131439829Y-105218945D01*
X131465000Y-105345487D01*
X131465000Y-105474513D01*
X131439829Y-105601055D01*
X131390453Y-105720261D01*
X131318773Y-105827537D01*
X131227537Y-105918773D01*
X131120261Y-105990453D01*
X131001055Y-106039829D01*
X130874513Y-106065000D01*
X130745487Y-106065000D01*
X130618945Y-106039829D01*
X130499739Y-105990453D01*
X130392463Y-105918773D01*
X130301227Y-105827537D01*
X130229547Y-105720261D01*
X130180171Y-105601055D01*
X130155000Y-105474513D01*
X130155000Y-105345487D01*
X130180171Y-105218945D01*
X130229547Y-105099739D01*
X130301227Y-104992463D01*
X130392463Y-104901227D01*
X130499739Y-104829547D01*
X130618945Y-104780171D01*
X130745487Y-104755000D01*
X130874513Y-104755000D01*
X131001055Y-104780171D01*
G37*
G36*
X131001055Y-102240171D02*
G01*
X131120261Y-102289547D01*
X131227537Y-102361227D01*
X131318773Y-102452463D01*
X131390453Y-102559739D01*
X131439829Y-102678945D01*
X131465000Y-102805487D01*
X131465000Y-102934513D01*
X131439829Y-103061055D01*
X131390453Y-103180261D01*
X131318773Y-103287537D01*
X131227537Y-103378773D01*
X131120261Y-103450453D01*
X131001055Y-103499829D01*
X130874513Y-103525000D01*
X130745487Y-103525000D01*
X130618945Y-103499829D01*
X130499739Y-103450453D01*
X130392463Y-103378773D01*
X130301227Y-103287537D01*
X130229547Y-103180261D01*
X130180171Y-103061055D01*
X130155000Y-102934513D01*
X130155000Y-102805487D01*
X130180171Y-102678945D01*
X130229547Y-102559739D01*
X130301227Y-102452463D01*
X130392463Y-102361227D01*
X130499739Y-102289547D01*
X130618945Y-102240171D01*
X130745487Y-102215000D01*
X130874513Y-102215000D01*
X131001055Y-102240171D01*
G37*
G36*
X143701055Y-102240171D02*
G01*
X143820261Y-102289547D01*
X143927537Y-102361227D01*
X144018773Y-102452463D01*
X144090453Y-102559739D01*
X144139829Y-102678945D01*
X144165000Y-102805487D01*
X144165000Y-102934513D01*
X144139829Y-103061055D01*
X144090453Y-103180261D01*
X144018773Y-103287537D01*
X143927537Y-103378773D01*
X143820261Y-103450453D01*
X143701055Y-103499829D01*
X143574513Y-103525000D01*
X143445487Y-103525000D01*
X143318945Y-103499829D01*
X143199739Y-103450453D01*
X143092463Y-103378773D01*
X143001227Y-103287537D01*
X142929547Y-103180261D01*
X142880171Y-103061055D01*
X142855000Y-102934513D01*
X142855000Y-102805487D01*
X142880171Y-102678945D01*
X142929547Y-102559739D01*
X143001227Y-102452463D01*
X143092463Y-102361227D01*
X143199739Y-102289547D01*
X143318945Y-102240171D01*
X143445487Y-102215000D01*
X143574513Y-102215000D01*
X143701055Y-102240171D01*
G37*
G36*
X141161055Y-102240171D02*
G01*
X141280261Y-102289547D01*
X141387537Y-102361227D01*
X141478773Y-102452463D01*
X141550453Y-102559739D01*
X141599829Y-102678945D01*
X141625000Y-102805487D01*
X141625000Y-102934513D01*
X141599829Y-103061055D01*
X141550453Y-103180261D01*
X141478773Y-103287537D01*
X141387537Y-103378773D01*
X141280261Y-103450453D01*
X141161055Y-103499829D01*
X141034513Y-103525000D01*
X140905487Y-103525000D01*
X140778945Y-103499829D01*
X140659739Y-103450453D01*
X140552463Y-103378773D01*
X140461227Y-103287537D01*
X140389547Y-103180261D01*
X140340171Y-103061055D01*
X140315000Y-102934513D01*
X140315000Y-102805487D01*
X140340171Y-102678945D01*
X140389547Y-102559739D01*
X140461227Y-102452463D01*
X140552463Y-102361227D01*
X140659739Y-102289547D01*
X140778945Y-102240171D01*
X140905487Y-102215000D01*
X141034513Y-102215000D01*
X141161055Y-102240171D01*
G37*
G36*
X128461055Y-102240171D02*
G01*
X128580261Y-102289547D01*
X128687537Y-102361227D01*
X128778773Y-102452463D01*
X128850453Y-102559739D01*
X128899829Y-102678945D01*
X128925000Y-102805487D01*
X128925000Y-102934513D01*
X128899829Y-103061055D01*
X128850453Y-103180261D01*
X128778773Y-103287537D01*
X128687537Y-103378773D01*
X128580261Y-103450453D01*
X128461055Y-103499829D01*
X128334513Y-103525000D01*
X128205487Y-103525000D01*
X128078945Y-103499829D01*
X127959739Y-103450453D01*
X127852463Y-103378773D01*
X127761227Y-103287537D01*
X127689547Y-103180261D01*
X127640171Y-103061055D01*
X127615000Y-102934513D01*
X127615000Y-102805487D01*
X127640171Y-102678945D01*
X127689547Y-102559739D01*
X127761227Y-102452463D01*
X127852463Y-102361227D01*
X127959739Y-102289547D01*
X128078945Y-102240171D01*
X128205487Y-102215000D01*
X128334513Y-102215000D01*
X128461055Y-102240171D01*
G37*
G36*
X143701055Y-99700171D02*
G01*
X143820261Y-99749547D01*
X143927537Y-99821227D01*
X144018773Y-99912463D01*
X144090453Y-100019739D01*
X144139829Y-100138945D01*
X144165000Y-100265487D01*
X144165000Y-100394513D01*
X144139829Y-100521055D01*
X144090453Y-100640261D01*
X144018773Y-100747537D01*
X143927537Y-100838773D01*
X143820261Y-100910453D01*
X143701055Y-100959829D01*
X143574513Y-100985000D01*
X143445487Y-100985000D01*
X143318945Y-100959829D01*
X143199739Y-100910453D01*
X143092463Y-100838773D01*
X143001227Y-100747537D01*
X142929547Y-100640261D01*
X142880171Y-100521055D01*
X142855000Y-100394513D01*
X142855000Y-100265487D01*
X142880171Y-100138945D01*
X142929547Y-100019739D01*
X143001227Y-99912463D01*
X143092463Y-99821227D01*
X143199739Y-99749547D01*
X143318945Y-99700171D01*
X143445487Y-99675000D01*
X143574513Y-99675000D01*
X143701055Y-99700171D01*
G37*
G36*
X128461055Y-99700171D02*
G01*
X128580261Y-99749547D01*
X128687537Y-99821227D01*
X128778773Y-99912463D01*
X128850453Y-100019739D01*
X128899829Y-100138945D01*
X128925000Y-100265487D01*
X128925000Y-100394513D01*
X128899829Y-100521055D01*
X128850453Y-100640261D01*
X128778773Y-100747537D01*
X128687537Y-100838773D01*
X128580261Y-100910453D01*
X128461055Y-100959829D01*
X128334513Y-100985000D01*
X128205487Y-100985000D01*
X128078945Y-100959829D01*
X127959739Y-100910453D01*
X127852463Y-100838773D01*
X127761227Y-100747537D01*
X127689547Y-100640261D01*
X127640171Y-100521055D01*
X127615000Y-100394513D01*
X127615000Y-100265487D01*
X127640171Y-100138945D01*
X127689547Y-100019739D01*
X127761227Y-99912463D01*
X127852463Y-99821227D01*
X127959739Y-99749547D01*
X128078945Y-99700171D01*
X128205487Y-99675000D01*
X128334513Y-99675000D01*
X128461055Y-99700171D01*
G37*
G36*
X131001055Y-99700171D02*
G01*
X131120261Y-99749547D01*
X131227537Y-99821227D01*
X131318773Y-99912463D01*
X131390453Y-100019739D01*
X131439829Y-100138945D01*
X131465000Y-100265487D01*
X131465000Y-100394513D01*
X131439829Y-100521055D01*
X131390453Y-100640261D01*
X131318773Y-100747537D01*
X131227537Y-100838773D01*
X131120261Y-100910453D01*
X131001055Y-100959829D01*
X130874513Y-100985000D01*
X130745487Y-100985000D01*
X130618945Y-100959829D01*
X130499739Y-100910453D01*
X130392463Y-100838773D01*
X130301227Y-100747537D01*
X130229547Y-100640261D01*
X130180171Y-100521055D01*
X130155000Y-100394513D01*
X130155000Y-100265487D01*
X130180171Y-100138945D01*
X130229547Y-100019739D01*
X130301227Y-99912463D01*
X130392463Y-99821227D01*
X130499739Y-99749547D01*
X130618945Y-99700171D01*
X130745487Y-99675000D01*
X130874513Y-99675000D01*
X131001055Y-99700171D01*
G37*
G36*
X141161055Y-99700171D02*
G01*
X141280261Y-99749547D01*
X141387537Y-99821227D01*
X141478773Y-99912463D01*
X141550453Y-100019739D01*
X141599829Y-100138945D01*
X141625000Y-100265487D01*
X141625000Y-100394513D01*
X141599829Y-100521055D01*
X141550453Y-100640261D01*
X141478773Y-100747537D01*
X141387537Y-100838773D01*
X141280261Y-100910453D01*
X141161055Y-100959829D01*
X141034513Y-100985000D01*
X140905487Y-100985000D01*
X140778945Y-100959829D01*
X140659739Y-100910453D01*
X140552463Y-100838773D01*
X140461227Y-100747537D01*
X140389547Y-100640261D01*
X140340171Y-100521055D01*
X140315000Y-100394513D01*
X140315000Y-100265487D01*
X140340171Y-100138945D01*
X140389547Y-100019739D01*
X140461227Y-99912463D01*
X140552463Y-99821227D01*
X140659739Y-99749547D01*
X140778945Y-99700171D01*
X140905487Y-99675000D01*
X141034513Y-99675000D01*
X141161055Y-99700171D01*
G37*
G36*
X143701055Y-97160171D02*
G01*
X143820261Y-97209547D01*
X143927537Y-97281227D01*
X144018773Y-97372463D01*
X144090453Y-97479739D01*
X144139829Y-97598945D01*
X144165000Y-97725487D01*
X144165000Y-97854513D01*
X144139829Y-97981055D01*
X144090453Y-98100261D01*
X144018773Y-98207537D01*
X143927537Y-98298773D01*
X143820261Y-98370453D01*
X143701055Y-98419829D01*
X143574513Y-98445000D01*
X143445487Y-98445000D01*
X143318945Y-98419829D01*
X143199739Y-98370453D01*
X143092463Y-98298773D01*
X143001227Y-98207537D01*
X142929547Y-98100261D01*
X142880171Y-97981055D01*
X142855000Y-97854513D01*
X142855000Y-97725487D01*
X142880171Y-97598945D01*
X142929547Y-97479739D01*
X143001227Y-97372463D01*
X143092463Y-97281227D01*
X143199739Y-97209547D01*
X143318945Y-97160171D01*
X143445487Y-97135000D01*
X143574513Y-97135000D01*
X143701055Y-97160171D01*
G37*
G36*
X141161055Y-97160171D02*
G01*
X141280261Y-97209547D01*
X141387537Y-97281227D01*
X141478773Y-97372463D01*
X141550453Y-97479739D01*
X141599829Y-97598945D01*
X141625000Y-97725487D01*
X141625000Y-97854513D01*
X141599829Y-97981055D01*
X141550453Y-98100261D01*
X141478773Y-98207537D01*
X141387537Y-98298773D01*
X141280261Y-98370453D01*
X141161055Y-98419829D01*
X141034513Y-98445000D01*
X140905487Y-98445000D01*
X140778945Y-98419829D01*
X140659739Y-98370453D01*
X140552463Y-98298773D01*
X140461227Y-98207537D01*
X140389547Y-98100261D01*
X140340171Y-97981055D01*
X140315000Y-97854513D01*
X140315000Y-97725487D01*
X140340171Y-97598945D01*
X140389547Y-97479739D01*
X140461227Y-97372463D01*
X140552463Y-97281227D01*
X140659739Y-97209547D01*
X140778945Y-97160171D01*
X140905487Y-97135000D01*
X141034513Y-97135000D01*
X141161055Y-97160171D01*
G37*
G36*
X128461055Y-97160171D02*
G01*
X128580261Y-97209547D01*
X128687537Y-97281227D01*
X128778773Y-97372463D01*
X128850453Y-97479739D01*
X128899829Y-97598945D01*
X128925000Y-97725487D01*
X128925000Y-97854513D01*
X128899829Y-97981055D01*
X128850453Y-98100261D01*
X128778773Y-98207537D01*
X128687537Y-98298773D01*
X128580261Y-98370453D01*
X128461055Y-98419829D01*
X128334513Y-98445000D01*
X128205487Y-98445000D01*
X128078945Y-98419829D01*
X127959739Y-98370453D01*
X127852463Y-98298773D01*
X127761227Y-98207537D01*
X127689547Y-98100261D01*
X127640171Y-97981055D01*
X127615000Y-97854513D01*
X127615000Y-97725487D01*
X127640171Y-97598945D01*
X127689547Y-97479739D01*
X127761227Y-97372463D01*
X127852463Y-97281227D01*
X127959739Y-97209547D01*
X128078945Y-97160171D01*
X128205487Y-97135000D01*
X128334513Y-97135000D01*
X128461055Y-97160171D01*
G37*
G36*
X131001055Y-97160171D02*
G01*
X131120261Y-97209547D01*
X131227537Y-97281227D01*
X131318773Y-97372463D01*
X131390453Y-97479739D01*
X131439829Y-97598945D01*
X131465000Y-97725487D01*
X131465000Y-97854513D01*
X131439829Y-97981055D01*
X131390453Y-98100261D01*
X131318773Y-98207537D01*
X131227537Y-98298773D01*
X131120261Y-98370453D01*
X131001055Y-98419829D01*
X130874513Y-98445000D01*
X130745487Y-98445000D01*
X130618945Y-98419829D01*
X130499739Y-98370453D01*
X130392463Y-98298773D01*
X130301227Y-98207537D01*
X130229547Y-98100261D01*
X130180171Y-97981055D01*
X130155000Y-97854513D01*
X130155000Y-97725487D01*
X130180171Y-97598945D01*
X130229547Y-97479739D01*
X130301227Y-97372463D01*
X130392463Y-97281227D01*
X130499739Y-97209547D01*
X130618945Y-97160171D01*
X130745487Y-97135000D01*
X130874513Y-97135000D01*
X131001055Y-97160171D01*
G37*
G36*
X141161055Y-94620171D02*
G01*
X141280261Y-94669547D01*
X141387537Y-94741227D01*
X141478773Y-94832463D01*
X141550453Y-94939739D01*
X141599829Y-95058945D01*
X141625000Y-95185487D01*
X141625000Y-95314513D01*
X141599829Y-95441055D01*
X141550453Y-95560261D01*
X141478773Y-95667537D01*
X141387537Y-95758773D01*
X141280261Y-95830453D01*
X141161055Y-95879829D01*
X141034513Y-95905000D01*
X140905487Y-95905000D01*
X140778945Y-95879829D01*
X140659739Y-95830453D01*
X140552463Y-95758773D01*
X140461227Y-95667537D01*
X140389547Y-95560261D01*
X140340171Y-95441055D01*
X140315000Y-95314513D01*
X140315000Y-95185487D01*
X140340171Y-95058945D01*
X140389547Y-94939739D01*
X140461227Y-94832463D01*
X140552463Y-94741227D01*
X140659739Y-94669547D01*
X140778945Y-94620171D01*
X140905487Y-94595000D01*
X141034513Y-94595000D01*
X141161055Y-94620171D01*
G37*
G36*
X131001055Y-94620171D02*
G01*
X131120261Y-94669547D01*
X131227537Y-94741227D01*
X131318773Y-94832463D01*
X131390453Y-94939739D01*
X131439829Y-95058945D01*
X131465000Y-95185487D01*
X131465000Y-95314513D01*
X131439829Y-95441055D01*
X131390453Y-95560261D01*
X131318773Y-95667537D01*
X131227537Y-95758773D01*
X131120261Y-95830453D01*
X131001055Y-95879829D01*
X130874513Y-95905000D01*
X130745487Y-95905000D01*
X130618945Y-95879829D01*
X130499739Y-95830453D01*
X130392463Y-95758773D01*
X130301227Y-95667537D01*
X130229547Y-95560261D01*
X130180171Y-95441055D01*
X130155000Y-95314513D01*
X130155000Y-95185487D01*
X130180171Y-95058945D01*
X130229547Y-94939739D01*
X130301227Y-94832463D01*
X130392463Y-94741227D01*
X130499739Y-94669547D01*
X130618945Y-94620171D01*
X130745487Y-94595000D01*
X130874513Y-94595000D01*
X131001055Y-94620171D01*
G37*
G36*
X128461055Y-94620171D02*
G01*
X128580261Y-94669547D01*
X128687537Y-94741227D01*
X128778773Y-94832463D01*
X128850453Y-94939739D01*
X128899829Y-95058945D01*
X128925000Y-95185487D01*
X128925000Y-95314513D01*
X128899829Y-95441055D01*
X128850453Y-95560261D01*
X128778773Y-95667537D01*
X128687537Y-95758773D01*
X128580261Y-95830453D01*
X128461055Y-95879829D01*
X128334513Y-95905000D01*
X128205487Y-95905000D01*
X128078945Y-95879829D01*
X127959739Y-95830453D01*
X127852463Y-95758773D01*
X127761227Y-95667537D01*
X127689547Y-95560261D01*
X127640171Y-95441055D01*
X127615000Y-95314513D01*
X127615000Y-95185487D01*
X127640171Y-95058945D01*
X127689547Y-94939739D01*
X127761227Y-94832463D01*
X127852463Y-94741227D01*
X127959739Y-94669547D01*
X128078945Y-94620171D01*
X128205487Y-94595000D01*
X128334513Y-94595000D01*
X128461055Y-94620171D01*
G37*
G36*
X143701055Y-94620171D02*
G01*
X143820261Y-94669547D01*
X143927537Y-94741227D01*
X144018773Y-94832463D01*
X144090453Y-94939739D01*
X144139829Y-95058945D01*
X144165000Y-95185487D01*
X144165000Y-95314513D01*
X144139829Y-95441055D01*
X144090453Y-95560261D01*
X144018773Y-95667537D01*
X143927537Y-95758773D01*
X143820261Y-95830453D01*
X143701055Y-95879829D01*
X143574513Y-95905000D01*
X143445487Y-95905000D01*
X143318945Y-95879829D01*
X143199739Y-95830453D01*
X143092463Y-95758773D01*
X143001227Y-95667537D01*
X142929547Y-95560261D01*
X142880171Y-95441055D01*
X142855000Y-95314513D01*
X142855000Y-95185487D01*
X142880171Y-95058945D01*
X142929547Y-94939739D01*
X143001227Y-94832463D01*
X143092463Y-94741227D01*
X143199739Y-94669547D01*
X143318945Y-94620171D01*
X143445487Y-94595000D01*
X143574513Y-94595000D01*
X143701055Y-94620171D01*
G37*
G36*
X131001055Y-92080171D02*
G01*
X131120261Y-92129547D01*
X131227537Y-92201227D01*
X131318773Y-92292463D01*
X131390453Y-92399739D01*
X131439829Y-92518945D01*
X131465000Y-92645487D01*
X131465000Y-92774513D01*
X131439829Y-92901055D01*
X131390453Y-93020261D01*
X131318773Y-93127537D01*
X131227537Y-93218773D01*
X131120261Y-93290453D01*
X131001055Y-93339829D01*
X130874513Y-93365000D01*
X130745487Y-93365000D01*
X130618945Y-93339829D01*
X130499739Y-93290453D01*
X130392463Y-93218773D01*
X130301227Y-93127537D01*
X130229547Y-93020261D01*
X130180171Y-92901055D01*
X130155000Y-92774513D01*
X130155000Y-92645487D01*
X130180171Y-92518945D01*
X130229547Y-92399739D01*
X130301227Y-92292463D01*
X130392463Y-92201227D01*
X130499739Y-92129547D01*
X130618945Y-92080171D01*
X130745487Y-92055000D01*
X130874513Y-92055000D01*
X131001055Y-92080171D01*
G37*
G36*
X128461055Y-92080171D02*
G01*
X128580261Y-92129547D01*
X128687537Y-92201227D01*
X128778773Y-92292463D01*
X128850453Y-92399739D01*
X128899829Y-92518945D01*
X128925000Y-92645487D01*
X128925000Y-92774513D01*
X128899829Y-92901055D01*
X128850453Y-93020261D01*
X128778773Y-93127537D01*
X128687537Y-93218773D01*
X128580261Y-93290453D01*
X128461055Y-93339829D01*
X128334513Y-93365000D01*
X128205487Y-93365000D01*
X128078945Y-93339829D01*
X127959739Y-93290453D01*
X127852463Y-93218773D01*
X127761227Y-93127537D01*
X127689547Y-93020261D01*
X127640171Y-92901055D01*
X127615000Y-92774513D01*
X127615000Y-92645487D01*
X127640171Y-92518945D01*
X127689547Y-92399739D01*
X127761227Y-92292463D01*
X127852463Y-92201227D01*
X127959739Y-92129547D01*
X128078945Y-92080171D01*
X128205487Y-92055000D01*
X128334513Y-92055000D01*
X128461055Y-92080171D01*
G37*
G36*
X141161055Y-92080171D02*
G01*
X141280261Y-92129547D01*
X141387537Y-92201227D01*
X141478773Y-92292463D01*
X141550453Y-92399739D01*
X141599829Y-92518945D01*
X141625000Y-92645487D01*
X141625000Y-92774513D01*
X141599829Y-92901055D01*
X141550453Y-93020261D01*
X141478773Y-93127537D01*
X141387537Y-93218773D01*
X141280261Y-93290453D01*
X141161055Y-93339829D01*
X141034513Y-93365000D01*
X140905487Y-93365000D01*
X140778945Y-93339829D01*
X140659739Y-93290453D01*
X140552463Y-93218773D01*
X140461227Y-93127537D01*
X140389547Y-93020261D01*
X140340171Y-92901055D01*
X140315000Y-92774513D01*
X140315000Y-92645487D01*
X140340171Y-92518945D01*
X140389547Y-92399739D01*
X140461227Y-92292463D01*
X140552463Y-92201227D01*
X140659739Y-92129547D01*
X140778945Y-92080171D01*
X140905487Y-92055000D01*
X141034513Y-92055000D01*
X141161055Y-92080171D01*
G37*
G36*
X143701055Y-92080171D02*
G01*
X143820261Y-92129547D01*
X143927537Y-92201227D01*
X144018773Y-92292463D01*
X144090453Y-92399739D01*
X144139829Y-92518945D01*
X144165000Y-92645487D01*
X144165000Y-92774513D01*
X144139829Y-92901055D01*
X144090453Y-93020261D01*
X144018773Y-93127537D01*
X143927537Y-93218773D01*
X143820261Y-93290453D01*
X143701055Y-93339829D01*
X143574513Y-93365000D01*
X143445487Y-93365000D01*
X143318945Y-93339829D01*
X143199739Y-93290453D01*
X143092463Y-93218773D01*
X143001227Y-93127537D01*
X142929547Y-93020261D01*
X142880171Y-92901055D01*
X142855000Y-92774513D01*
X142855000Y-92645487D01*
X142880171Y-92518945D01*
X142929547Y-92399739D01*
X143001227Y-92292463D01*
X143092463Y-92201227D01*
X143199739Y-92129547D01*
X143318945Y-92080171D01*
X143445487Y-92055000D01*
X143574513Y-92055000D01*
X143701055Y-92080171D01*
G37*
G36*
X134255421Y-90174271D02*
G01*
X134294298Y-90186064D01*
X134330118Y-90205211D01*
X134361519Y-90230981D01*
X134387289Y-90262382D01*
X134406436Y-90298202D01*
X134418229Y-90337079D01*
X134422500Y-90380447D01*
X134422500Y-91009553D01*
X134418229Y-91052921D01*
X134406436Y-91091798D01*
X134387289Y-91127618D01*
X134361519Y-91159019D01*
X134330118Y-91184789D01*
X134294298Y-91203936D01*
X134255421Y-91215729D01*
X134212053Y-91220000D01*
X133682947Y-91220000D01*
X133639579Y-91215729D01*
X133600702Y-91203936D01*
X133564882Y-91184789D01*
X133533481Y-91159019D01*
X133507711Y-91127618D01*
X133488564Y-91091798D01*
X133476771Y-91052921D01*
X133472500Y-91009553D01*
X133472500Y-90380447D01*
X133476771Y-90337079D01*
X133488564Y-90298202D01*
X133507711Y-90262382D01*
X133533481Y-90230981D01*
X133564882Y-90205211D01*
X133600702Y-90186064D01*
X133639579Y-90174271D01*
X133682947Y-90170000D01*
X134212053Y-90170000D01*
X134255421Y-90174271D01*
G37*
G36*
X131001055Y-89540171D02*
G01*
X131120261Y-89589547D01*
X131227537Y-89661227D01*
X131318773Y-89752463D01*
X131390453Y-89859739D01*
X131439829Y-89978945D01*
X131465000Y-90105487D01*
X131465000Y-90234513D01*
X131439829Y-90361055D01*
X131390453Y-90480261D01*
X131318773Y-90587537D01*
X131227537Y-90678773D01*
X131120261Y-90750453D01*
X131001055Y-90799829D01*
X130874513Y-90825000D01*
X130745487Y-90825000D01*
X130618945Y-90799829D01*
X130499739Y-90750453D01*
X130392463Y-90678773D01*
X130301227Y-90587537D01*
X130229547Y-90480261D01*
X130180171Y-90361055D01*
X130155000Y-90234513D01*
X130155000Y-90105487D01*
X130180171Y-89978945D01*
X130229547Y-89859739D01*
X130301227Y-89752463D01*
X130392463Y-89661227D01*
X130499739Y-89589547D01*
X130618945Y-89540171D01*
X130745487Y-89515000D01*
X130874513Y-89515000D01*
X131001055Y-89540171D01*
G37*
G36*
X141161055Y-89540171D02*
G01*
X141280261Y-89589547D01*
X141387537Y-89661227D01*
X141478773Y-89752463D01*
X141550453Y-89859739D01*
X141599829Y-89978945D01*
X141625000Y-90105487D01*
X141625000Y-90234513D01*
X141599829Y-90361055D01*
X141550453Y-90480261D01*
X141478773Y-90587537D01*
X141387537Y-90678773D01*
X141280261Y-90750453D01*
X141161055Y-90799829D01*
X141034513Y-90825000D01*
X140905487Y-90825000D01*
X140778945Y-90799829D01*
X140659739Y-90750453D01*
X140552463Y-90678773D01*
X140461227Y-90587537D01*
X140389547Y-90480261D01*
X140340171Y-90361055D01*
X140315000Y-90234513D01*
X140315000Y-90105487D01*
X140340171Y-89978945D01*
X140389547Y-89859739D01*
X140461227Y-89752463D01*
X140552463Y-89661227D01*
X140659739Y-89589547D01*
X140778945Y-89540171D01*
X140905487Y-89515000D01*
X141034513Y-89515000D01*
X141161055Y-89540171D01*
G37*
G36*
X128461055Y-89540171D02*
G01*
X128580261Y-89589547D01*
X128687537Y-89661227D01*
X128778773Y-89752463D01*
X128850453Y-89859739D01*
X128899829Y-89978945D01*
X128925000Y-90105487D01*
X128925000Y-90234513D01*
X128899829Y-90361055D01*
X128850453Y-90480261D01*
X128778773Y-90587537D01*
X128687537Y-90678773D01*
X128580261Y-90750453D01*
X128461055Y-90799829D01*
X128334513Y-90825000D01*
X128205487Y-90825000D01*
X128078945Y-90799829D01*
X127959739Y-90750453D01*
X127852463Y-90678773D01*
X127761227Y-90587537D01*
X127689547Y-90480261D01*
X127640171Y-90361055D01*
X127615000Y-90234513D01*
X127615000Y-90105487D01*
X127640171Y-89978945D01*
X127689547Y-89859739D01*
X127761227Y-89752463D01*
X127852463Y-89661227D01*
X127959739Y-89589547D01*
X128078945Y-89540171D01*
X128205487Y-89515000D01*
X128334513Y-89515000D01*
X128461055Y-89540171D01*
G37*
G36*
X143701055Y-89540171D02*
G01*
X143820261Y-89589547D01*
X143927537Y-89661227D01*
X144018773Y-89752463D01*
X144090453Y-89859739D01*
X144139829Y-89978945D01*
X144165000Y-90105487D01*
X144165000Y-90234513D01*
X144139829Y-90361055D01*
X144090453Y-90480261D01*
X144018773Y-90587537D01*
X143927537Y-90678773D01*
X143820261Y-90750453D01*
X143701055Y-90799829D01*
X143574513Y-90825000D01*
X143445487Y-90825000D01*
X143318945Y-90799829D01*
X143199739Y-90750453D01*
X143092463Y-90678773D01*
X143001227Y-90587537D01*
X142929547Y-90480261D01*
X142880171Y-90361055D01*
X142855000Y-90234513D01*
X142855000Y-90105487D01*
X142880171Y-89978945D01*
X142929547Y-89859739D01*
X143001227Y-89752463D01*
X143092463Y-89661227D01*
X143199739Y-89589547D01*
X143318945Y-89540171D01*
X143445487Y-89515000D01*
X143574513Y-89515000D01*
X143701055Y-89540171D01*
G37*
G36*
X134255421Y-88424271D02*
G01*
X134294298Y-88436064D01*
X134330118Y-88455211D01*
X134361519Y-88480981D01*
X134387289Y-88512382D01*
X134406436Y-88548202D01*
X134418229Y-88587079D01*
X134422500Y-88630447D01*
X134422500Y-89259553D01*
X134418229Y-89302921D01*
X134406436Y-89341798D01*
X134387289Y-89377618D01*
X134361519Y-89409019D01*
X134330118Y-89434789D01*
X134294298Y-89453936D01*
X134255421Y-89465729D01*
X134212053Y-89470000D01*
X133682947Y-89470000D01*
X133639579Y-89465729D01*
X133600702Y-89453936D01*
X133564882Y-89434789D01*
X133533481Y-89409019D01*
X133507711Y-89377618D01*
X133488564Y-89341798D01*
X133476771Y-89302921D01*
X133472500Y-89259553D01*
X133472500Y-88630447D01*
X133476771Y-88587079D01*
X133488564Y-88548202D01*
X133507711Y-88512382D01*
X133533481Y-88480981D01*
X133564882Y-88455211D01*
X133600702Y-88436064D01*
X133639579Y-88424271D01*
X133682947Y-88420000D01*
X134212053Y-88420000D01*
X134255421Y-88424271D01*
G37*
G36*
X138662921Y-88429271D02*
G01*
X138701798Y-88441064D01*
X138737618Y-88460211D01*
X138769019Y-88485981D01*
X138794789Y-88517382D01*
X138813936Y-88553202D01*
X138825729Y-88592079D01*
X138830000Y-88635447D01*
X138830000Y-89164553D01*
X138825729Y-89207921D01*
X138813936Y-89246798D01*
X138794789Y-89282618D01*
X138769019Y-89314019D01*
X138737618Y-89339789D01*
X138701798Y-89358936D01*
X138662921Y-89370729D01*
X138619553Y-89375000D01*
X137990447Y-89375000D01*
X137947079Y-89370729D01*
X137908202Y-89358936D01*
X137872382Y-89339789D01*
X137840981Y-89314019D01*
X137815211Y-89282618D01*
X137796064Y-89246798D01*
X137784271Y-89207921D01*
X137780000Y-89164553D01*
X137780000Y-88635447D01*
X137784271Y-88592079D01*
X137796064Y-88553202D01*
X137815211Y-88517382D01*
X137840981Y-88485981D01*
X137872382Y-88460211D01*
X137908202Y-88441064D01*
X137947079Y-88429271D01*
X137990447Y-88425000D01*
X138619553Y-88425000D01*
X138662921Y-88429271D01*
G37*
G36*
X136912921Y-88429271D02*
G01*
X136951798Y-88441064D01*
X136987618Y-88460211D01*
X137019019Y-88485981D01*
X137044789Y-88517382D01*
X137063936Y-88553202D01*
X137075729Y-88592079D01*
X137080000Y-88635447D01*
X137080000Y-89164553D01*
X137075729Y-89207921D01*
X137063936Y-89246798D01*
X137044789Y-89282618D01*
X137019019Y-89314019D01*
X136987618Y-89339789D01*
X136951798Y-89358936D01*
X136912921Y-89370729D01*
X136869553Y-89375000D01*
X136240447Y-89375000D01*
X136197079Y-89370729D01*
X136158202Y-89358936D01*
X136122382Y-89339789D01*
X136090981Y-89314019D01*
X136065211Y-89282618D01*
X136046064Y-89246798D01*
X136034271Y-89207921D01*
X136030000Y-89164553D01*
X136030000Y-88635447D01*
X136034271Y-88592079D01*
X136046064Y-88553202D01*
X136065211Y-88517382D01*
X136090981Y-88485981D01*
X136122382Y-88460211D01*
X136158202Y-88441064D01*
X136197079Y-88429271D01*
X136240447Y-88425000D01*
X136869553Y-88425000D01*
X136912921Y-88429271D01*
G37*
G36*
X128461055Y-87000171D02*
G01*
X128580261Y-87049547D01*
X128687537Y-87121227D01*
X128778773Y-87212463D01*
X128850453Y-87319739D01*
X128899829Y-87438945D01*
X128925000Y-87565487D01*
X128925000Y-87694513D01*
X128899829Y-87821055D01*
X128850453Y-87940261D01*
X128778773Y-88047537D01*
X128687537Y-88138773D01*
X128580261Y-88210453D01*
X128461055Y-88259829D01*
X128334513Y-88285000D01*
X128205487Y-88285000D01*
X128078945Y-88259829D01*
X127959739Y-88210453D01*
X127852463Y-88138773D01*
X127761227Y-88047537D01*
X127689547Y-87940261D01*
X127640171Y-87821055D01*
X127615000Y-87694513D01*
X127615000Y-87565487D01*
X127640171Y-87438945D01*
X127689547Y-87319739D01*
X127761227Y-87212463D01*
X127852463Y-87121227D01*
X127959739Y-87049547D01*
X128078945Y-87000171D01*
X128205487Y-86975000D01*
X128334513Y-86975000D01*
X128461055Y-87000171D01*
G37*
G36*
X131001055Y-87000171D02*
G01*
X131120261Y-87049547D01*
X131227537Y-87121227D01*
X131318773Y-87212463D01*
X131390453Y-87319739D01*
X131439829Y-87438945D01*
X131465000Y-87565487D01*
X131465000Y-87694513D01*
X131439829Y-87821055D01*
X131390453Y-87940261D01*
X131318773Y-88047537D01*
X131227537Y-88138773D01*
X131120261Y-88210453D01*
X131001055Y-88259829D01*
X130874513Y-88285000D01*
X130745487Y-88285000D01*
X130618945Y-88259829D01*
X130499739Y-88210453D01*
X130392463Y-88138773D01*
X130301227Y-88047537D01*
X130229547Y-87940261D01*
X130180171Y-87821055D01*
X130155000Y-87694513D01*
X130155000Y-87565487D01*
X130180171Y-87438945D01*
X130229547Y-87319739D01*
X130301227Y-87212463D01*
X130392463Y-87121227D01*
X130499739Y-87049547D01*
X130618945Y-87000171D01*
X130745487Y-86975000D01*
X130874513Y-86975000D01*
X131001055Y-87000171D01*
G37*
G36*
X143701055Y-87000171D02*
G01*
X143820261Y-87049547D01*
X143927537Y-87121227D01*
X144018773Y-87212463D01*
X144090453Y-87319739D01*
X144139829Y-87438945D01*
X144165000Y-87565487D01*
X144165000Y-87694513D01*
X144139829Y-87821055D01*
X144090453Y-87940261D01*
X144018773Y-88047537D01*
X143927537Y-88138773D01*
X143820261Y-88210453D01*
X143701055Y-88259829D01*
X143574513Y-88285000D01*
X143445487Y-88285000D01*
X143318945Y-88259829D01*
X143199739Y-88210453D01*
X143092463Y-88138773D01*
X143001227Y-88047537D01*
X142929547Y-87940261D01*
X142880171Y-87821055D01*
X142855000Y-87694513D01*
X142855000Y-87565487D01*
X142880171Y-87438945D01*
X142929547Y-87319739D01*
X143001227Y-87212463D01*
X143092463Y-87121227D01*
X143199739Y-87049547D01*
X143318945Y-87000171D01*
X143445487Y-86975000D01*
X143574513Y-86975000D01*
X143701055Y-87000171D01*
G37*
G36*
X141161055Y-87000171D02*
G01*
X141280261Y-87049547D01*
X141387537Y-87121227D01*
X141478773Y-87212463D01*
X141550453Y-87319739D01*
X141599829Y-87438945D01*
X141625000Y-87565487D01*
X141625000Y-87694513D01*
X141599829Y-87821055D01*
X141550453Y-87940261D01*
X141478773Y-88047537D01*
X141387537Y-88138773D01*
X141280261Y-88210453D01*
X141161055Y-88259829D01*
X141034513Y-88285000D01*
X140905487Y-88285000D01*
X140778945Y-88259829D01*
X140659739Y-88210453D01*
X140552463Y-88138773D01*
X140461227Y-88047537D01*
X140389547Y-87940261D01*
X140340171Y-87821055D01*
X140315000Y-87694513D01*
X140315000Y-87565487D01*
X140340171Y-87438945D01*
X140389547Y-87319739D01*
X140461227Y-87212463D01*
X140552463Y-87121227D01*
X140659739Y-87049547D01*
X140778945Y-87000171D01*
X140905487Y-86975000D01*
X141034513Y-86975000D01*
X141161055Y-87000171D01*
G37*
G36*
X136145421Y-85889271D02*
G01*
X136184298Y-85901064D01*
X136220118Y-85920211D01*
X136251519Y-85945981D01*
X136277289Y-85977382D01*
X136296436Y-86013202D01*
X136308229Y-86052079D01*
X136312500Y-86095447D01*
X136312500Y-86624553D01*
X136308229Y-86667921D01*
X136296436Y-86706798D01*
X136277289Y-86742618D01*
X136251519Y-86774019D01*
X136220118Y-86799789D01*
X136184298Y-86818936D01*
X136145421Y-86830729D01*
X136102053Y-86835000D01*
X135472947Y-86835000D01*
X135429579Y-86830729D01*
X135390702Y-86818936D01*
X135354882Y-86799789D01*
X135323481Y-86774019D01*
X135297711Y-86742618D01*
X135278564Y-86706798D01*
X135266771Y-86667921D01*
X135262500Y-86624553D01*
X135262500Y-86095447D01*
X135266771Y-86052079D01*
X135278564Y-86013202D01*
X135297711Y-85977382D01*
X135323481Y-85945981D01*
X135354882Y-85920211D01*
X135390702Y-85901064D01*
X135429579Y-85889271D01*
X135472947Y-85885000D01*
X136102053Y-85885000D01*
X136145421Y-85889271D01*
G37*
G36*
X134395421Y-85889271D02*
G01*
X134434298Y-85901064D01*
X134470118Y-85920211D01*
X134501519Y-85945981D01*
X134527289Y-85977382D01*
X134546436Y-86013202D01*
X134558229Y-86052079D01*
X134562500Y-86095447D01*
X134562500Y-86624553D01*
X134558229Y-86667921D01*
X134546436Y-86706798D01*
X134527289Y-86742618D01*
X134501519Y-86774019D01*
X134470118Y-86799789D01*
X134434298Y-86818936D01*
X134395421Y-86830729D01*
X134352053Y-86835000D01*
X133722947Y-86835000D01*
X133679579Y-86830729D01*
X133640702Y-86818936D01*
X133604882Y-86799789D01*
X133573481Y-86774019D01*
X133547711Y-86742618D01*
X133528564Y-86706798D01*
X133516771Y-86667921D01*
X133512500Y-86624553D01*
X133512500Y-86095447D01*
X133516771Y-86052079D01*
X133528564Y-86013202D01*
X133547711Y-85977382D01*
X133573481Y-85945981D01*
X133604882Y-85920211D01*
X133640702Y-85901064D01*
X133679579Y-85889271D01*
X133722947Y-85885000D01*
X134352053Y-85885000D01*
X134395421Y-85889271D01*
G37*
G36*
X143701055Y-84460171D02*
G01*
X143820261Y-84509547D01*
X143927537Y-84581227D01*
X144018773Y-84672463D01*
X144090453Y-84779739D01*
X144139829Y-84898945D01*
X144165000Y-85025487D01*
X144165000Y-85154513D01*
X144139829Y-85281055D01*
X144090453Y-85400261D01*
X144018773Y-85507537D01*
X143927537Y-85598773D01*
X143820261Y-85670453D01*
X143701055Y-85719829D01*
X143574513Y-85745000D01*
X143445487Y-85745000D01*
X143318945Y-85719829D01*
X143199739Y-85670453D01*
X143092463Y-85598773D01*
X143001227Y-85507537D01*
X142929547Y-85400261D01*
X142880171Y-85281055D01*
X142855000Y-85154513D01*
X142855000Y-85025487D01*
X142880171Y-84898945D01*
X142929547Y-84779739D01*
X143001227Y-84672463D01*
X143092463Y-84581227D01*
X143199739Y-84509547D01*
X143318945Y-84460171D01*
X143445487Y-84435000D01*
X143574513Y-84435000D01*
X143701055Y-84460171D01*
G37*
G36*
X131001055Y-84460171D02*
G01*
X131120261Y-84509547D01*
X131227537Y-84581227D01*
X131318773Y-84672463D01*
X131390453Y-84779739D01*
X131439829Y-84898945D01*
X131465000Y-85025487D01*
X131465000Y-85154513D01*
X131439829Y-85281055D01*
X131390453Y-85400261D01*
X131318773Y-85507537D01*
X131227537Y-85598773D01*
X131120261Y-85670453D01*
X131001055Y-85719829D01*
X130874513Y-85745000D01*
X130745487Y-85745000D01*
X130618945Y-85719829D01*
X130499739Y-85670453D01*
X130392463Y-85598773D01*
X130301227Y-85507537D01*
X130229547Y-85400261D01*
X130180171Y-85281055D01*
X130155000Y-85154513D01*
X130155000Y-85025487D01*
X130180171Y-84898945D01*
X130229547Y-84779739D01*
X130301227Y-84672463D01*
X130392463Y-84581227D01*
X130499739Y-84509547D01*
X130618945Y-84460171D01*
X130745487Y-84435000D01*
X130874513Y-84435000D01*
X131001055Y-84460171D01*
G37*
G36*
X128461055Y-84460171D02*
G01*
X128580261Y-84509547D01*
X128687537Y-84581227D01*
X128778773Y-84672463D01*
X128850453Y-84779739D01*
X128899829Y-84898945D01*
X128925000Y-85025487D01*
X128925000Y-85154513D01*
X128899829Y-85281055D01*
X128850453Y-85400261D01*
X128778773Y-85507537D01*
X128687537Y-85598773D01*
X128580261Y-85670453D01*
X128461055Y-85719829D01*
X128334513Y-85745000D01*
X128205487Y-85745000D01*
X128078945Y-85719829D01*
X127959739Y-85670453D01*
X127852463Y-85598773D01*
X127761227Y-85507537D01*
X127689547Y-85400261D01*
X127640171Y-85281055D01*
X127615000Y-85154513D01*
X127615000Y-85025487D01*
X127640171Y-84898945D01*
X127689547Y-84779739D01*
X127761227Y-84672463D01*
X127852463Y-84581227D01*
X127959739Y-84509547D01*
X128078945Y-84460171D01*
X128205487Y-84435000D01*
X128334513Y-84435000D01*
X128461055Y-84460171D01*
G37*
G36*
X141161055Y-84460171D02*
G01*
X141280261Y-84509547D01*
X141387537Y-84581227D01*
X141478773Y-84672463D01*
X141550453Y-84779739D01*
X141599829Y-84898945D01*
X141625000Y-85025487D01*
X141625000Y-85154513D01*
X141599829Y-85281055D01*
X141550453Y-85400261D01*
X141478773Y-85507537D01*
X141387537Y-85598773D01*
X141280261Y-85670453D01*
X141161055Y-85719829D01*
X141034513Y-85745000D01*
X140905487Y-85745000D01*
X140778945Y-85719829D01*
X140659739Y-85670453D01*
X140552463Y-85598773D01*
X140461227Y-85507537D01*
X140389547Y-85400261D01*
X140340171Y-85281055D01*
X140315000Y-85154513D01*
X140315000Y-85025487D01*
X140340171Y-84898945D01*
X140389547Y-84779739D01*
X140461227Y-84672463D01*
X140552463Y-84581227D01*
X140659739Y-84509547D01*
X140778945Y-84460171D01*
X140905487Y-84435000D01*
X141034513Y-84435000D01*
X141161055Y-84460171D01*
G37*
G36*
X141161055Y-81920171D02*
G01*
X141280261Y-81969547D01*
X141387537Y-82041227D01*
X141478773Y-82132463D01*
X141550453Y-82239739D01*
X141599829Y-82358945D01*
X141625000Y-82485487D01*
X141625000Y-82614513D01*
X141599829Y-82741055D01*
X141550453Y-82860261D01*
X141478773Y-82967537D01*
X141387537Y-83058773D01*
X141280261Y-83130453D01*
X141161055Y-83179829D01*
X141034513Y-83205000D01*
X140905487Y-83205000D01*
X140778945Y-83179829D01*
X140659739Y-83130453D01*
X140552463Y-83058773D01*
X140461227Y-82967537D01*
X140389547Y-82860261D01*
X140340171Y-82741055D01*
X140315000Y-82614513D01*
X140315000Y-82485487D01*
X140340171Y-82358945D01*
X140389547Y-82239739D01*
X140461227Y-82132463D01*
X140552463Y-82041227D01*
X140659739Y-81969547D01*
X140778945Y-81920171D01*
X140905487Y-81895000D01*
X141034513Y-81895000D01*
X141161055Y-81920171D01*
G37*
G36*
X131001055Y-81920171D02*
G01*
X131120261Y-81969547D01*
X131227537Y-82041227D01*
X131318773Y-82132463D01*
X131390453Y-82239739D01*
X131439829Y-82358945D01*
X131465000Y-82485487D01*
X131465000Y-82614513D01*
X131439829Y-82741055D01*
X131390453Y-82860261D01*
X131318773Y-82967537D01*
X131227537Y-83058773D01*
X131120261Y-83130453D01*
X131001055Y-83179829D01*
X130874513Y-83205000D01*
X130745487Y-83205000D01*
X130618945Y-83179829D01*
X130499739Y-83130453D01*
X130392463Y-83058773D01*
X130301227Y-82967537D01*
X130229547Y-82860261D01*
X130180171Y-82741055D01*
X130155000Y-82614513D01*
X130155000Y-82485487D01*
X130180171Y-82358945D01*
X130229547Y-82239739D01*
X130301227Y-82132463D01*
X130392463Y-82041227D01*
X130499739Y-81969547D01*
X130618945Y-81920171D01*
X130745487Y-81895000D01*
X130874513Y-81895000D01*
X131001055Y-81920171D01*
G37*
G36*
X128461055Y-81920171D02*
G01*
X128580261Y-81969547D01*
X128687537Y-82041227D01*
X128778773Y-82132463D01*
X128850453Y-82239739D01*
X128899829Y-82358945D01*
X128925000Y-82485487D01*
X128925000Y-82614513D01*
X128899829Y-82741055D01*
X128850453Y-82860261D01*
X128778773Y-82967537D01*
X128687537Y-83058773D01*
X128580261Y-83130453D01*
X128461055Y-83179829D01*
X128334513Y-83205000D01*
X128205487Y-83205000D01*
X128078945Y-83179829D01*
X127959739Y-83130453D01*
X127852463Y-83058773D01*
X127761227Y-82967537D01*
X127689547Y-82860261D01*
X127640171Y-82741055D01*
X127615000Y-82614513D01*
X127615000Y-82485487D01*
X127640171Y-82358945D01*
X127689547Y-82239739D01*
X127761227Y-82132463D01*
X127852463Y-82041227D01*
X127959739Y-81969547D01*
X128078945Y-81920171D01*
X128205487Y-81895000D01*
X128334513Y-81895000D01*
X128461055Y-81920171D01*
G37*
G36*
X143701055Y-81920171D02*
G01*
X143820261Y-81969547D01*
X143927537Y-82041227D01*
X144018773Y-82132463D01*
X144090453Y-82239739D01*
X144139829Y-82358945D01*
X144165000Y-82485487D01*
X144165000Y-82614513D01*
X144139829Y-82741055D01*
X144090453Y-82860261D01*
X144018773Y-82967537D01*
X143927537Y-83058773D01*
X143820261Y-83130453D01*
X143701055Y-83179829D01*
X143574513Y-83205000D01*
X143445487Y-83205000D01*
X143318945Y-83179829D01*
X143199739Y-83130453D01*
X143092463Y-83058773D01*
X143001227Y-82967537D01*
X142929547Y-82860261D01*
X142880171Y-82741055D01*
X142855000Y-82614513D01*
X142855000Y-82485487D01*
X142880171Y-82358945D01*
X142929547Y-82239739D01*
X143001227Y-82132463D01*
X143092463Y-82041227D01*
X143199739Y-81969547D01*
X143318945Y-81920171D01*
X143445487Y-81895000D01*
X143574513Y-81895000D01*
X143701055Y-81920171D01*
G37*
G36*
X143701055Y-79380171D02*
G01*
X143820261Y-79429547D01*
X143927537Y-79501227D01*
X144018773Y-79592463D01*
X144090453Y-79699739D01*
X144139829Y-79818945D01*
X144165000Y-79945487D01*
X144165000Y-80074513D01*
X144139829Y-80201055D01*
X144090453Y-80320261D01*
X144018773Y-80427537D01*
X143927537Y-80518773D01*
X143820261Y-80590453D01*
X143701055Y-80639829D01*
X143574513Y-80665000D01*
X143445487Y-80665000D01*
X143318945Y-80639829D01*
X143199739Y-80590453D01*
X143092463Y-80518773D01*
X143001227Y-80427537D01*
X142929547Y-80320261D01*
X142880171Y-80201055D01*
X142855000Y-80074513D01*
X142855000Y-79945487D01*
X142880171Y-79818945D01*
X142929547Y-79699739D01*
X143001227Y-79592463D01*
X143092463Y-79501227D01*
X143199739Y-79429547D01*
X143318945Y-79380171D01*
X143445487Y-79355000D01*
X143574513Y-79355000D01*
X143701055Y-79380171D01*
G37*
G36*
X131001055Y-79380171D02*
G01*
X131120261Y-79429547D01*
X131227537Y-79501227D01*
X131318773Y-79592463D01*
X131390453Y-79699739D01*
X131439829Y-79818945D01*
X131465000Y-79945487D01*
X131465000Y-80074513D01*
X131439829Y-80201055D01*
X131390453Y-80320261D01*
X131318773Y-80427537D01*
X131227537Y-80518773D01*
X131120261Y-80590453D01*
X131001055Y-80639829D01*
X130874513Y-80665000D01*
X130745487Y-80665000D01*
X130618945Y-80639829D01*
X130499739Y-80590453D01*
X130392463Y-80518773D01*
X130301227Y-80427537D01*
X130229547Y-80320261D01*
X130180171Y-80201055D01*
X130155000Y-80074513D01*
X130155000Y-79945487D01*
X130180171Y-79818945D01*
X130229547Y-79699739D01*
X130301227Y-79592463D01*
X130392463Y-79501227D01*
X130499739Y-79429547D01*
X130618945Y-79380171D01*
X130745487Y-79355000D01*
X130874513Y-79355000D01*
X131001055Y-79380171D01*
G37*
G36*
X128461055Y-79380171D02*
G01*
X128580261Y-79429547D01*
X128687537Y-79501227D01*
X128778773Y-79592463D01*
X128850453Y-79699739D01*
X128899829Y-79818945D01*
X128925000Y-79945487D01*
X128925000Y-80074513D01*
X128899829Y-80201055D01*
X128850453Y-80320261D01*
X128778773Y-80427537D01*
X128687537Y-80518773D01*
X128580261Y-80590453D01*
X128461055Y-80639829D01*
X128334513Y-80665000D01*
X128205487Y-80665000D01*
X128078945Y-80639829D01*
X127959739Y-80590453D01*
X127852463Y-80518773D01*
X127761227Y-80427537D01*
X127689547Y-80320261D01*
X127640171Y-80201055D01*
X127615000Y-80074513D01*
X127615000Y-79945487D01*
X127640171Y-79818945D01*
X127689547Y-79699739D01*
X127761227Y-79592463D01*
X127852463Y-79501227D01*
X127959739Y-79429547D01*
X128078945Y-79380171D01*
X128205487Y-79355000D01*
X128334513Y-79355000D01*
X128461055Y-79380171D01*
G37*
G36*
X141161055Y-79380171D02*
G01*
X141280261Y-79429547D01*
X141387537Y-79501227D01*
X141478773Y-79592463D01*
X141550453Y-79699739D01*
X141599829Y-79818945D01*
X141625000Y-79945487D01*
X141625000Y-80074513D01*
X141599829Y-80201055D01*
X141550453Y-80320261D01*
X141478773Y-80427537D01*
X141387537Y-80518773D01*
X141280261Y-80590453D01*
X141161055Y-80639829D01*
X141034513Y-80665000D01*
X140905487Y-80665000D01*
X140778945Y-80639829D01*
X140659739Y-80590453D01*
X140552463Y-80518773D01*
X140461227Y-80427537D01*
X140389547Y-80320261D01*
X140340171Y-80201055D01*
X140315000Y-80074513D01*
X140315000Y-79945487D01*
X140340171Y-79818945D01*
X140389547Y-79699739D01*
X140461227Y-79592463D01*
X140552463Y-79501227D01*
X140659739Y-79429547D01*
X140778945Y-79380171D01*
X140905487Y-79355000D01*
X141034513Y-79355000D01*
X141161055Y-79380171D01*
G37*
G36*
X135320000Y-78745000D02*
G01*
X133760000Y-78745000D01*
X133760000Y-78095000D01*
X135320000Y-78095000D01*
X135320000Y-78745000D01*
G37*
G36*
X138020000Y-78745000D02*
G01*
X136460000Y-78745000D01*
X136460000Y-78095000D01*
X138020000Y-78095000D01*
X138020000Y-78745000D01*
G37*
G36*
X143701055Y-76840171D02*
G01*
X143820261Y-76889547D01*
X143927537Y-76961227D01*
X144018773Y-77052463D01*
X144090453Y-77159739D01*
X144139829Y-77278945D01*
X144165000Y-77405487D01*
X144165000Y-77534513D01*
X144139829Y-77661055D01*
X144090453Y-77780261D01*
X144018773Y-77887537D01*
X143927537Y-77978773D01*
X143820261Y-78050453D01*
X143701055Y-78099829D01*
X143574513Y-78125000D01*
X143445487Y-78125000D01*
X143318945Y-78099829D01*
X143199739Y-78050453D01*
X143092463Y-77978773D01*
X143001227Y-77887537D01*
X142929547Y-77780261D01*
X142880171Y-77661055D01*
X142855000Y-77534513D01*
X142855000Y-77405487D01*
X142880171Y-77278945D01*
X142929547Y-77159739D01*
X143001227Y-77052463D01*
X143092463Y-76961227D01*
X143199739Y-76889547D01*
X143318945Y-76840171D01*
X143445487Y-76815000D01*
X143574513Y-76815000D01*
X143701055Y-76840171D01*
G37*
G36*
X131001055Y-76840171D02*
G01*
X131120261Y-76889547D01*
X131227537Y-76961227D01*
X131318773Y-77052463D01*
X131390453Y-77159739D01*
X131439829Y-77278945D01*
X131465000Y-77405487D01*
X131465000Y-77534513D01*
X131439829Y-77661055D01*
X131390453Y-77780261D01*
X131318773Y-77887537D01*
X131227537Y-77978773D01*
X131120261Y-78050453D01*
X131001055Y-78099829D01*
X130874513Y-78125000D01*
X130745487Y-78125000D01*
X130618945Y-78099829D01*
X130499739Y-78050453D01*
X130392463Y-77978773D01*
X130301227Y-77887537D01*
X130229547Y-77780261D01*
X130180171Y-77661055D01*
X130155000Y-77534513D01*
X130155000Y-77405487D01*
X130180171Y-77278945D01*
X130229547Y-77159739D01*
X130301227Y-77052463D01*
X130392463Y-76961227D01*
X130499739Y-76889547D01*
X130618945Y-76840171D01*
X130745487Y-76815000D01*
X130874513Y-76815000D01*
X131001055Y-76840171D01*
G37*
G36*
X141161055Y-76840171D02*
G01*
X141280261Y-76889547D01*
X141387537Y-76961227D01*
X141478773Y-77052463D01*
X141550453Y-77159739D01*
X141599829Y-77278945D01*
X141625000Y-77405487D01*
X141625000Y-77534513D01*
X141599829Y-77661055D01*
X141550453Y-77780261D01*
X141478773Y-77887537D01*
X141387537Y-77978773D01*
X141280261Y-78050453D01*
X141161055Y-78099829D01*
X141034513Y-78125000D01*
X140905487Y-78125000D01*
X140778945Y-78099829D01*
X140659739Y-78050453D01*
X140552463Y-77978773D01*
X140461227Y-77887537D01*
X140389547Y-77780261D01*
X140340171Y-77661055D01*
X140315000Y-77534513D01*
X140315000Y-77405487D01*
X140340171Y-77278945D01*
X140389547Y-77159739D01*
X140461227Y-77052463D01*
X140552463Y-76961227D01*
X140659739Y-76889547D01*
X140778945Y-76840171D01*
X140905487Y-76815000D01*
X141034513Y-76815000D01*
X141161055Y-76840171D01*
G37*
G36*
X128461055Y-76840171D02*
G01*
X128580261Y-76889547D01*
X128687537Y-76961227D01*
X128778773Y-77052463D01*
X128850453Y-77159739D01*
X128899829Y-77278945D01*
X128925000Y-77405487D01*
X128925000Y-77534513D01*
X128899829Y-77661055D01*
X128850453Y-77780261D01*
X128778773Y-77887537D01*
X128687537Y-77978773D01*
X128580261Y-78050453D01*
X128461055Y-78099829D01*
X128334513Y-78125000D01*
X128205487Y-78125000D01*
X128078945Y-78099829D01*
X127959739Y-78050453D01*
X127852463Y-77978773D01*
X127761227Y-77887537D01*
X127689547Y-77780261D01*
X127640171Y-77661055D01*
X127615000Y-77534513D01*
X127615000Y-77405487D01*
X127640171Y-77278945D01*
X127689547Y-77159739D01*
X127761227Y-77052463D01*
X127852463Y-76961227D01*
X127959739Y-76889547D01*
X128078945Y-76840171D01*
X128205487Y-76815000D01*
X128334513Y-76815000D01*
X128461055Y-76840171D01*
G37*
G36*
X135320000Y-77795000D02*
G01*
X133760000Y-77795000D01*
X133760000Y-77145000D01*
X135320000Y-77145000D01*
X135320000Y-77795000D01*
G37*
G36*
X138020000Y-76845000D02*
G01*
X136460000Y-76845000D01*
X136460000Y-76195000D01*
X138020000Y-76195000D01*
X138020000Y-76845000D01*
G37*
G36*
X135320000Y-76845000D02*
G01*
X133760000Y-76845000D01*
X133760000Y-76195000D01*
X135320000Y-76195000D01*
X135320000Y-76845000D01*
G37*
G36*
X128461055Y-74300171D02*
G01*
X128580261Y-74349547D01*
X128687537Y-74421227D01*
X128778773Y-74512463D01*
X128850453Y-74619739D01*
X128899829Y-74738945D01*
X128925000Y-74865487D01*
X128925000Y-74994513D01*
X128899829Y-75121055D01*
X128850453Y-75240261D01*
X128778773Y-75347537D01*
X128687537Y-75438773D01*
X128580261Y-75510453D01*
X128461055Y-75559829D01*
X128334513Y-75585000D01*
X128205487Y-75585000D01*
X128078945Y-75559829D01*
X127959739Y-75510453D01*
X127852463Y-75438773D01*
X127761227Y-75347537D01*
X127689547Y-75240261D01*
X127640171Y-75121055D01*
X127615000Y-74994513D01*
X127615000Y-74865487D01*
X127640171Y-74738945D01*
X127689547Y-74619739D01*
X127761227Y-74512463D01*
X127852463Y-74421227D01*
X127959739Y-74349547D01*
X128078945Y-74300171D01*
X128205487Y-74275000D01*
X128334513Y-74275000D01*
X128461055Y-74300171D01*
G37*
G36*
X141161055Y-74300171D02*
G01*
X141280261Y-74349547D01*
X141387537Y-74421227D01*
X141478773Y-74512463D01*
X141550453Y-74619739D01*
X141599829Y-74738945D01*
X141625000Y-74865487D01*
X141625000Y-74994513D01*
X141599829Y-75121055D01*
X141550453Y-75240261D01*
X141478773Y-75347537D01*
X141387537Y-75438773D01*
X141280261Y-75510453D01*
X141161055Y-75559829D01*
X141034513Y-75585000D01*
X140905487Y-75585000D01*
X140778945Y-75559829D01*
X140659739Y-75510453D01*
X140552463Y-75438773D01*
X140461227Y-75347537D01*
X140389547Y-75240261D01*
X140340171Y-75121055D01*
X140315000Y-74994513D01*
X140315000Y-74865487D01*
X140340171Y-74738945D01*
X140389547Y-74619739D01*
X140461227Y-74512463D01*
X140552463Y-74421227D01*
X140659739Y-74349547D01*
X140778945Y-74300171D01*
X140905487Y-74275000D01*
X141034513Y-74275000D01*
X141161055Y-74300171D01*
G37*
G36*
X131001055Y-74300171D02*
G01*
X131120261Y-74349547D01*
X131227537Y-74421227D01*
X131318773Y-74512463D01*
X131390453Y-74619739D01*
X131439829Y-74738945D01*
X131465000Y-74865487D01*
X131465000Y-74994513D01*
X131439829Y-75121055D01*
X131390453Y-75240261D01*
X131318773Y-75347537D01*
X131227537Y-75438773D01*
X131120261Y-75510453D01*
X131001055Y-75559829D01*
X130874513Y-75585000D01*
X130745487Y-75585000D01*
X130618945Y-75559829D01*
X130499739Y-75510453D01*
X130392463Y-75438773D01*
X130301227Y-75347537D01*
X130229547Y-75240261D01*
X130180171Y-75121055D01*
X130155000Y-74994513D01*
X130155000Y-74865487D01*
X130180171Y-74738945D01*
X130229547Y-74619739D01*
X130301227Y-74512463D01*
X130392463Y-74421227D01*
X130499739Y-74349547D01*
X130618945Y-74300171D01*
X130745487Y-74275000D01*
X130874513Y-74275000D01*
X131001055Y-74300171D01*
G37*
G36*
X143701055Y-74300171D02*
G01*
X143820261Y-74349547D01*
X143927537Y-74421227D01*
X144018773Y-74512463D01*
X144090453Y-74619739D01*
X144139829Y-74738945D01*
X144165000Y-74865487D01*
X144165000Y-74994513D01*
X144139829Y-75121055D01*
X144090453Y-75240261D01*
X144018773Y-75347537D01*
X143927537Y-75438773D01*
X143820261Y-75510453D01*
X143701055Y-75559829D01*
X143574513Y-75585000D01*
X143445487Y-75585000D01*
X143318945Y-75559829D01*
X143199739Y-75510453D01*
X143092463Y-75438773D01*
X143001227Y-75347537D01*
X142929547Y-75240261D01*
X142880171Y-75121055D01*
X142855000Y-74994513D01*
X142855000Y-74865487D01*
X142880171Y-74738945D01*
X142929547Y-74619739D01*
X143001227Y-74512463D01*
X143092463Y-74421227D01*
X143199739Y-74349547D01*
X143318945Y-74300171D01*
X143445487Y-74275000D01*
X143574513Y-74275000D01*
X143701055Y-74300171D01*
G37*
G36*
X137122921Y-74459271D02*
G01*
X137161798Y-74471064D01*
X137197618Y-74490211D01*
X137229019Y-74515981D01*
X137254789Y-74547382D01*
X137273936Y-74583202D01*
X137285729Y-74622079D01*
X137290000Y-74665447D01*
X137290000Y-75194553D01*
X137285729Y-75237921D01*
X137273936Y-75276798D01*
X137254789Y-75312618D01*
X137229019Y-75344019D01*
X137197618Y-75369789D01*
X137161798Y-75388936D01*
X137122921Y-75400729D01*
X137079553Y-75405000D01*
X136450447Y-75405000D01*
X136407079Y-75400729D01*
X136368202Y-75388936D01*
X136332382Y-75369789D01*
X136300981Y-75344019D01*
X136275211Y-75312618D01*
X136256064Y-75276798D01*
X136244271Y-75237921D01*
X136240000Y-75194553D01*
X136240000Y-74665447D01*
X136244271Y-74622079D01*
X136256064Y-74583202D01*
X136275211Y-74547382D01*
X136300981Y-74515981D01*
X136332382Y-74490211D01*
X136368202Y-74471064D01*
X136407079Y-74459271D01*
X136450447Y-74455000D01*
X137079553Y-74455000D01*
X137122921Y-74459271D01*
G37*
G36*
X135372921Y-74459271D02*
G01*
X135411798Y-74471064D01*
X135447618Y-74490211D01*
X135479019Y-74515981D01*
X135504789Y-74547382D01*
X135523936Y-74583202D01*
X135535729Y-74622079D01*
X135540000Y-74665447D01*
X135540000Y-75194553D01*
X135535729Y-75237921D01*
X135523936Y-75276798D01*
X135504789Y-75312618D01*
X135479019Y-75344019D01*
X135447618Y-75369789D01*
X135411798Y-75388936D01*
X135372921Y-75400729D01*
X135329553Y-75405000D01*
X134700447Y-75405000D01*
X134657079Y-75400729D01*
X134618202Y-75388936D01*
X134582382Y-75369789D01*
X134550981Y-75344019D01*
X134525211Y-75312618D01*
X134506064Y-75276798D01*
X134494271Y-75237921D01*
X134490000Y-75194553D01*
X134490000Y-74665447D01*
X134494271Y-74622079D01*
X134506064Y-74583202D01*
X134525211Y-74547382D01*
X134550981Y-74515981D01*
X134582382Y-74490211D01*
X134618202Y-74471064D01*
X134657079Y-74459271D01*
X134700447Y-74455000D01*
X135329553Y-74455000D01*
X135372921Y-74459271D01*
G37*
G36*
X143701055Y-71760171D02*
G01*
X143820261Y-71809547D01*
X143927537Y-71881227D01*
X144018773Y-71972463D01*
X144090453Y-72079739D01*
X144139829Y-72198945D01*
X144165000Y-72325487D01*
X144165000Y-72454513D01*
X144139829Y-72581055D01*
X144090453Y-72700261D01*
X144018773Y-72807537D01*
X143927537Y-72898773D01*
X143820261Y-72970453D01*
X143701055Y-73019829D01*
X143574513Y-73045000D01*
X143445487Y-73045000D01*
X143318945Y-73019829D01*
X143199739Y-72970453D01*
X143092463Y-72898773D01*
X143001227Y-72807537D01*
X142929547Y-72700261D01*
X142880171Y-72581055D01*
X142855000Y-72454513D01*
X142855000Y-72325487D01*
X142880171Y-72198945D01*
X142929547Y-72079739D01*
X143001227Y-71972463D01*
X143092463Y-71881227D01*
X143199739Y-71809547D01*
X143318945Y-71760171D01*
X143445487Y-71735000D01*
X143574513Y-71735000D01*
X143701055Y-71760171D01*
G37*
G36*
X141161055Y-71760171D02*
G01*
X141280261Y-71809547D01*
X141387537Y-71881227D01*
X141478773Y-71972463D01*
X141550453Y-72079739D01*
X141599829Y-72198945D01*
X141625000Y-72325487D01*
X141625000Y-72454513D01*
X141599829Y-72581055D01*
X141550453Y-72700261D01*
X141478773Y-72807537D01*
X141387537Y-72898773D01*
X141280261Y-72970453D01*
X141161055Y-73019829D01*
X141034513Y-73045000D01*
X140905487Y-73045000D01*
X140778945Y-73019829D01*
X140659739Y-72970453D01*
X140552463Y-72898773D01*
X140461227Y-72807537D01*
X140389547Y-72700261D01*
X140340171Y-72581055D01*
X140315000Y-72454513D01*
X140315000Y-72325487D01*
X140340171Y-72198945D01*
X140389547Y-72079739D01*
X140461227Y-71972463D01*
X140552463Y-71881227D01*
X140659739Y-71809547D01*
X140778945Y-71760171D01*
X140905487Y-71735000D01*
X141034513Y-71735000D01*
X141161055Y-71760171D01*
G37*
G36*
X131001055Y-71760171D02*
G01*
X131120261Y-71809547D01*
X131227537Y-71881227D01*
X131318773Y-71972463D01*
X131390453Y-72079739D01*
X131439829Y-72198945D01*
X131465000Y-72325487D01*
X131465000Y-72454513D01*
X131439829Y-72581055D01*
X131390453Y-72700261D01*
X131318773Y-72807537D01*
X131227537Y-72898773D01*
X131120261Y-72970453D01*
X131001055Y-73019829D01*
X130874513Y-73045000D01*
X130745487Y-73045000D01*
X130618945Y-73019829D01*
X130499739Y-72970453D01*
X130392463Y-72898773D01*
X130301227Y-72807537D01*
X130229547Y-72700261D01*
X130180171Y-72581055D01*
X130155000Y-72454513D01*
X130155000Y-72325487D01*
X130180171Y-72198945D01*
X130229547Y-72079739D01*
X130301227Y-71972463D01*
X130392463Y-71881227D01*
X130499739Y-71809547D01*
X130618945Y-71760171D01*
X130745487Y-71735000D01*
X130874513Y-71735000D01*
X131001055Y-71760171D01*
G37*
G36*
X128461055Y-71760171D02*
G01*
X128580261Y-71809547D01*
X128687537Y-71881227D01*
X128778773Y-71972463D01*
X128850453Y-72079739D01*
X128899829Y-72198945D01*
X128925000Y-72325487D01*
X128925000Y-72454513D01*
X128899829Y-72581055D01*
X128850453Y-72700261D01*
X128778773Y-72807537D01*
X128687537Y-72898773D01*
X128580261Y-72970453D01*
X128461055Y-73019829D01*
X128334513Y-73045000D01*
X128205487Y-73045000D01*
X128078945Y-73019829D01*
X127959739Y-72970453D01*
X127852463Y-72898773D01*
X127761227Y-72807537D01*
X127689547Y-72700261D01*
X127640171Y-72581055D01*
X127615000Y-72454513D01*
X127615000Y-72325487D01*
X127640171Y-72198945D01*
X127689547Y-72079739D01*
X127761227Y-71972463D01*
X127852463Y-71881227D01*
X127959739Y-71809547D01*
X128078945Y-71760171D01*
X128205487Y-71735000D01*
X128334513Y-71735000D01*
X128461055Y-71760171D01*
G37*
G36*
X141161055Y-69220171D02*
G01*
X141280261Y-69269547D01*
X141387537Y-69341227D01*
X141478773Y-69432463D01*
X141550453Y-69539739D01*
X141599829Y-69658945D01*
X141625000Y-69785487D01*
X141625000Y-69914513D01*
X141599829Y-70041055D01*
X141550453Y-70160261D01*
X141478773Y-70267537D01*
X141387537Y-70358773D01*
X141280261Y-70430453D01*
X141161055Y-70479829D01*
X141034513Y-70505000D01*
X140905487Y-70505000D01*
X140778945Y-70479829D01*
X140659739Y-70430453D01*
X140552463Y-70358773D01*
X140461227Y-70267537D01*
X140389547Y-70160261D01*
X140340171Y-70041055D01*
X140315000Y-69914513D01*
X140315000Y-69785487D01*
X140340171Y-69658945D01*
X140389547Y-69539739D01*
X140461227Y-69432463D01*
X140552463Y-69341227D01*
X140659739Y-69269547D01*
X140778945Y-69220171D01*
X140905487Y-69195000D01*
X141034513Y-69195000D01*
X141161055Y-69220171D01*
G37*
G36*
X128461055Y-69220171D02*
G01*
X128580261Y-69269547D01*
X128687537Y-69341227D01*
X128778773Y-69432463D01*
X128850453Y-69539739D01*
X128899829Y-69658945D01*
X128925000Y-69785487D01*
X128925000Y-69914513D01*
X128899829Y-70041055D01*
X128850453Y-70160261D01*
X128778773Y-70267537D01*
X128687537Y-70358773D01*
X128580261Y-70430453D01*
X128461055Y-70479829D01*
X128334513Y-70505000D01*
X128205487Y-70505000D01*
X128078945Y-70479829D01*
X127959739Y-70430453D01*
X127852463Y-70358773D01*
X127761227Y-70267537D01*
X127689547Y-70160261D01*
X127640171Y-70041055D01*
X127615000Y-69914513D01*
X127615000Y-69785487D01*
X127640171Y-69658945D01*
X127689547Y-69539739D01*
X127761227Y-69432463D01*
X127852463Y-69341227D01*
X127959739Y-69269547D01*
X128078945Y-69220171D01*
X128205487Y-69195000D01*
X128334513Y-69195000D01*
X128461055Y-69220171D01*
G37*
G36*
X143701055Y-69220171D02*
G01*
X143820261Y-69269547D01*
X143927537Y-69341227D01*
X144018773Y-69432463D01*
X144090453Y-69539739D01*
X144139829Y-69658945D01*
X144165000Y-69785487D01*
X144165000Y-69914513D01*
X144139829Y-70041055D01*
X144090453Y-70160261D01*
X144018773Y-70267537D01*
X143927537Y-70358773D01*
X143820261Y-70430453D01*
X143701055Y-70479829D01*
X143574513Y-70505000D01*
X143445487Y-70505000D01*
X143318945Y-70479829D01*
X143199739Y-70430453D01*
X143092463Y-70358773D01*
X143001227Y-70267537D01*
X142929547Y-70160261D01*
X142880171Y-70041055D01*
X142855000Y-69914513D01*
X142855000Y-69785487D01*
X142880171Y-69658945D01*
X142929547Y-69539739D01*
X143001227Y-69432463D01*
X143092463Y-69341227D01*
X143199739Y-69269547D01*
X143318945Y-69220171D01*
X143445487Y-69195000D01*
X143574513Y-69195000D01*
X143701055Y-69220171D01*
G37*
G36*
X131001055Y-69220171D02*
G01*
X131120261Y-69269547D01*
X131227537Y-69341227D01*
X131318773Y-69432463D01*
X131390453Y-69539739D01*
X131439829Y-69658945D01*
X131465000Y-69785487D01*
X131465000Y-69914513D01*
X131439829Y-70041055D01*
X131390453Y-70160261D01*
X131318773Y-70267537D01*
X131227537Y-70358773D01*
X131120261Y-70430453D01*
X131001055Y-70479829D01*
X130874513Y-70505000D01*
X130745487Y-70505000D01*
X130618945Y-70479829D01*
X130499739Y-70430453D01*
X130392463Y-70358773D01*
X130301227Y-70267537D01*
X130229547Y-70160261D01*
X130180171Y-70041055D01*
X130155000Y-69914513D01*
X130155000Y-69785487D01*
X130180171Y-69658945D01*
X130229547Y-69539739D01*
X130301227Y-69432463D01*
X130392463Y-69341227D01*
X130499739Y-69269547D01*
X130618945Y-69220171D01*
X130745487Y-69195000D01*
X130874513Y-69195000D01*
X131001055Y-69220171D01*
G37*
G36*
X131001055Y-66680171D02*
G01*
X131120261Y-66729547D01*
X131227537Y-66801227D01*
X131318773Y-66892463D01*
X131390453Y-66999739D01*
X131439829Y-67118945D01*
X131465000Y-67245487D01*
X131465000Y-67374513D01*
X131439829Y-67501055D01*
X131390453Y-67620261D01*
X131318773Y-67727537D01*
X131227537Y-67818773D01*
X131120261Y-67890453D01*
X131001055Y-67939829D01*
X130874513Y-67965000D01*
X130745487Y-67965000D01*
X130618945Y-67939829D01*
X130499739Y-67890453D01*
X130392463Y-67818773D01*
X130301227Y-67727537D01*
X130229547Y-67620261D01*
X130180171Y-67501055D01*
X130155000Y-67374513D01*
X130155000Y-67245487D01*
X130180171Y-67118945D01*
X130229547Y-66999739D01*
X130301227Y-66892463D01*
X130392463Y-66801227D01*
X130499739Y-66729547D01*
X130618945Y-66680171D01*
X130745487Y-66655000D01*
X130874513Y-66655000D01*
X131001055Y-66680171D01*
G37*
G36*
X141161055Y-66680171D02*
G01*
X141280261Y-66729547D01*
X141387537Y-66801227D01*
X141478773Y-66892463D01*
X141550453Y-66999739D01*
X141599829Y-67118945D01*
X141625000Y-67245487D01*
X141625000Y-67374513D01*
X141599829Y-67501055D01*
X141550453Y-67620261D01*
X141478773Y-67727537D01*
X141387537Y-67818773D01*
X141280261Y-67890453D01*
X141161055Y-67939829D01*
X141034513Y-67965000D01*
X140905487Y-67965000D01*
X140778945Y-67939829D01*
X140659739Y-67890453D01*
X140552463Y-67818773D01*
X140461227Y-67727537D01*
X140389547Y-67620261D01*
X140340171Y-67501055D01*
X140315000Y-67374513D01*
X140315000Y-67245487D01*
X140340171Y-67118945D01*
X140389547Y-66999739D01*
X140461227Y-66892463D01*
X140552463Y-66801227D01*
X140659739Y-66729547D01*
X140778945Y-66680171D01*
X140905487Y-66655000D01*
X141034513Y-66655000D01*
X141161055Y-66680171D01*
G37*
G36*
X143701055Y-66680171D02*
G01*
X143820261Y-66729547D01*
X143927537Y-66801227D01*
X144018773Y-66892463D01*
X144090453Y-66999739D01*
X144139829Y-67118945D01*
X144165000Y-67245487D01*
X144165000Y-67374513D01*
X144139829Y-67501055D01*
X144090453Y-67620261D01*
X144018773Y-67727537D01*
X143927537Y-67818773D01*
X143820261Y-67890453D01*
X143701055Y-67939829D01*
X143574513Y-67965000D01*
X143445487Y-67965000D01*
X143318945Y-67939829D01*
X143199739Y-67890453D01*
X143092463Y-67818773D01*
X143001227Y-67727537D01*
X142929547Y-67620261D01*
X142880171Y-67501055D01*
X142855000Y-67374513D01*
X142855000Y-67245487D01*
X142880171Y-67118945D01*
X142929547Y-66999739D01*
X143001227Y-66892463D01*
X143092463Y-66801227D01*
X143199739Y-66729547D01*
X143318945Y-66680171D01*
X143445487Y-66655000D01*
X143574513Y-66655000D01*
X143701055Y-66680171D01*
G37*
G36*
X128461055Y-66680171D02*
G01*
X128580261Y-66729547D01*
X128687537Y-66801227D01*
X128778773Y-66892463D01*
X128850453Y-66999739D01*
X128899829Y-67118945D01*
X128925000Y-67245487D01*
X128925000Y-67374513D01*
X128899829Y-67501055D01*
X128850453Y-67620261D01*
X128778773Y-67727537D01*
X128687537Y-67818773D01*
X128580261Y-67890453D01*
X128461055Y-67939829D01*
X128334513Y-67965000D01*
X128205487Y-67965000D01*
X128078945Y-67939829D01*
X127959739Y-67890453D01*
X127852463Y-67818773D01*
X127761227Y-67727537D01*
X127689547Y-67620261D01*
X127640171Y-67501055D01*
X127615000Y-67374513D01*
X127615000Y-67245487D01*
X127640171Y-67118945D01*
X127689547Y-66999739D01*
X127761227Y-66892463D01*
X127852463Y-66801227D01*
X127959739Y-66729547D01*
X128078945Y-66680171D01*
X128205487Y-66655000D01*
X128334513Y-66655000D01*
X128461055Y-66680171D01*
G37*
G36*
X143701055Y-64140171D02*
G01*
X143820261Y-64189547D01*
X143927537Y-64261227D01*
X144018773Y-64352463D01*
X144090453Y-64459739D01*
X144139829Y-64578945D01*
X144165000Y-64705487D01*
X144165000Y-64834513D01*
X144139829Y-64961055D01*
X144090453Y-65080261D01*
X144018773Y-65187537D01*
X143927537Y-65278773D01*
X143820261Y-65350453D01*
X143701055Y-65399829D01*
X143574513Y-65425000D01*
X143445487Y-65425000D01*
X143318945Y-65399829D01*
X143199739Y-65350453D01*
X143092463Y-65278773D01*
X143001227Y-65187537D01*
X142929547Y-65080261D01*
X142880171Y-64961055D01*
X142855000Y-64834513D01*
X142855000Y-64705487D01*
X142880171Y-64578945D01*
X142929547Y-64459739D01*
X143001227Y-64352463D01*
X143092463Y-64261227D01*
X143199739Y-64189547D01*
X143318945Y-64140171D01*
X143445487Y-64115000D01*
X143574513Y-64115000D01*
X143701055Y-64140171D01*
G37*
G36*
X141161055Y-64140171D02*
G01*
X141280261Y-64189547D01*
X141387537Y-64261227D01*
X141478773Y-64352463D01*
X141550453Y-64459739D01*
X141599829Y-64578945D01*
X141625000Y-64705487D01*
X141625000Y-64834513D01*
X141599829Y-64961055D01*
X141550453Y-65080261D01*
X141478773Y-65187537D01*
X141387537Y-65278773D01*
X141280261Y-65350453D01*
X141161055Y-65399829D01*
X141034513Y-65425000D01*
X140905487Y-65425000D01*
X140778945Y-65399829D01*
X140659739Y-65350453D01*
X140552463Y-65278773D01*
X140461227Y-65187537D01*
X140389547Y-65080261D01*
X140340171Y-64961055D01*
X140315000Y-64834513D01*
X140315000Y-64705487D01*
X140340171Y-64578945D01*
X140389547Y-64459739D01*
X140461227Y-64352463D01*
X140552463Y-64261227D01*
X140659739Y-64189547D01*
X140778945Y-64140171D01*
X140905487Y-64115000D01*
X141034513Y-64115000D01*
X141161055Y-64140171D01*
G37*
G36*
X131001055Y-64140171D02*
G01*
X131120261Y-64189547D01*
X131227537Y-64261227D01*
X131318773Y-64352463D01*
X131390453Y-64459739D01*
X131439829Y-64578945D01*
X131465000Y-64705487D01*
X131465000Y-64834513D01*
X131439829Y-64961055D01*
X131390453Y-65080261D01*
X131318773Y-65187537D01*
X131227537Y-65278773D01*
X131120261Y-65350453D01*
X131001055Y-65399829D01*
X130874513Y-65425000D01*
X130745487Y-65425000D01*
X130618945Y-65399829D01*
X130499739Y-65350453D01*
X130392463Y-65278773D01*
X130301227Y-65187537D01*
X130229547Y-65080261D01*
X130180171Y-64961055D01*
X130155000Y-64834513D01*
X130155000Y-64705487D01*
X130180171Y-64578945D01*
X130229547Y-64459739D01*
X130301227Y-64352463D01*
X130392463Y-64261227D01*
X130499739Y-64189547D01*
X130618945Y-64140171D01*
X130745487Y-64115000D01*
X130874513Y-64115000D01*
X131001055Y-64140171D01*
G37*
G36*
X128461055Y-64140171D02*
G01*
X128580261Y-64189547D01*
X128687537Y-64261227D01*
X128778773Y-64352463D01*
X128850453Y-64459739D01*
X128899829Y-64578945D01*
X128925000Y-64705487D01*
X128925000Y-64834513D01*
X128899829Y-64961055D01*
X128850453Y-65080261D01*
X128778773Y-65187537D01*
X128687537Y-65278773D01*
X128580261Y-65350453D01*
X128461055Y-65399829D01*
X128334513Y-65425000D01*
X128205487Y-65425000D01*
X128078945Y-65399829D01*
X127959739Y-65350453D01*
X127852463Y-65278773D01*
X127761227Y-65187537D01*
X127689547Y-65080261D01*
X127640171Y-64961055D01*
X127615000Y-64834513D01*
X127615000Y-64705487D01*
X127640171Y-64578945D01*
X127689547Y-64459739D01*
X127761227Y-64352463D01*
X127852463Y-64261227D01*
X127959739Y-64189547D01*
X128078945Y-64140171D01*
X128205487Y-64115000D01*
X128334513Y-64115000D01*
X128461055Y-64140171D01*
G37*
M02*
